<svg width="48" height="48" viewBox="0 0 48 48" fill="none" xmlns="http://www.w3.org/2000/svg">
<path d="M23.9981 11.84C24.5073 11.84 24.9957 11.6377 25.3558 11.2776C25.7158 10.9176 25.9181 10.4292 25.9181 9.92C25.9181 9.41078 25.7158 8.92242 25.3558 8.56236C24.9957 8.20229 24.5073 8 23.9981 8C23.4889 8 23.0005 8.20229 22.6405 8.56236C22.2804 8.92242 22.0781 9.41078 22.0781 9.92C22.0781 10.4292 22.2804 10.9176 22.6405 11.2776C23.0005 11.6377 23.4889 11.84 23.9981 11.84ZM23.9981 25.92C24.5073 25.92 24.9957 25.7177 25.3558 25.3576C25.7158 24.9976 25.9181 24.5092 25.9181 24C25.9181 23.4908 25.7158 23.0024 25.3558 22.6424C24.9957 22.2823 24.5073 22.08 23.9981 22.08C23.4889 22.08 23.0005 22.2823 22.6405 22.6424C22.2804 23.0024 22.0781 23.4908 22.0781 24C22.0781 24.5092 22.2804 24.9976 22.6405 25.3576C23.0005 25.7177 23.4889 25.92 23.9981 25.92ZM23.9981 40C24.5073 40 24.9957 39.7977 25.3558 39.4376C25.7158 39.0776 25.9181 38.5892 25.9181 38.08C25.9181 37.5708 25.7158 37.0824 25.3558 36.7224C24.9957 36.3623 24.5073 36.16 23.9981 36.16C23.4889 36.16 23.0005 36.3623 22.6405 36.7224C22.2804 37.0824 22.0781 37.5708 22.0781 38.08C22.0781 38.5892 22.2804 39.0776 22.6405 39.4376C23.0005 39.7977 23.4889 40 23.9981 40Z" stroke="black" stroke-width="3" stroke-linecap="round" stroke-linejoin="round"/>
</svg>
